<svg width="44" height="31" viewBox="0 0 44 31" fill="none" xmlns="http://www.w3.org/2000/svg">
<path d="M21.5202 26.1137C21.5202 24.9168 22.439 23.9565 23.5843 23.9565C24.7293 23.9565 25.6479 24.9168 25.6479 26.1137C25.6479 27.3104 24.7293 28.2709 23.5843 28.2709C22.439 28.2709 21.5202 27.3104 21.5202 26.1137ZM29.9171 26.1137C29.9171 24.9168 30.8361 23.9565 31.9811 23.9565C33.1257 23.9565 34.0447 24.9168 34.0447 26.1137C34.0447 27.3104 33.1257 28.2709 31.9811 28.2709C30.8361 28.2709 29.9171 27.3104 29.9171 26.1137ZM10.4517 26.1137C10.4517 24.9168 11.3702 23.9565 12.5157 23.9565C13.6604 23.9565 14.5793 24.9168 14.5793 26.1137C14.5793 27.3104 13.6604 28.2709 12.5157 28.2709C11.3702 28.2709 10.4517 27.3104 10.4517 26.1137ZM2.05478 26.1137C2.05478 24.9168 2.97332 23.9565 4.11838 23.9565C5.26388 23.9565 6.18242 24.9168 6.18242 26.1137C6.18242 27.3104 5.26388 28.2709 4.11838 28.2709C2.97332 28.2709 2.05478 27.3104 2.05478 26.1137ZM19.0321 22.3017H17.2368V29.8515H19.0321V22.3017ZM6.16834 29.8515H7.96358V22.3017H6.16834V22.9077C5.56039 22.4646 4.82531 22.2134 4.03391 22.2134C1.96988 22.2134 0.301758 23.9565 0.301758 26.1137C0.301758 28.2856 1.96988 30.0138 4.03391 30.0138C4.82531 30.0138 5.56039 29.7628 6.16834 29.3195V29.8515ZM34.0306 29.8515H35.8259V22.3017H34.0306V22.9077C33.4227 22.4646 32.6876 22.2134 31.8962 22.2134C29.8322 22.2134 28.1645 23.9565 28.1645 26.1137C28.1645 28.2856 29.8322 30.0138 31.8962 30.0138C32.6876 30.0138 33.4227 29.7628 34.0306 29.3195V29.8515ZM36.4906 27.3987C36.5469 28.9206 37.7909 29.999 39.869 29.999C41.5653 29.999 42.9648 29.2307 42.9648 27.5321C42.9648 26.3499 42.3286 25.6558 40.8584 25.3601L39.7134 25.1237C38.9782 24.9762 38.4693 24.8281 38.4693 24.3702C38.4693 23.8682 38.9641 23.6465 39.5861 23.6465C40.491 23.6465 40.8584 24.1192 40.8866 24.6806H42.6964C42.5974 23.203 41.4663 22.2134 39.643 22.2134C37.7629 22.2134 36.6459 23.2917 36.6459 24.6953C36.6459 26.4093 37.9748 26.6896 39.12 26.9113L40.067 27.0887C40.7453 27.2217 41.0423 27.4286 41.0423 27.8423C41.0423 28.2115 40.7031 28.5807 39.8972 28.5807C38.724 28.5807 38.3421 27.9457 38.328 27.3987H36.4906ZM14.5652 19.7312V22.9077C13.9573 22.4646 13.2222 22.2134 12.4308 22.2134C10.3668 22.2134 8.69868 23.9565 8.69868 26.1137C8.69868 28.2856 10.3668 30.0138 12.4308 30.0138C13.2222 30.0138 13.9573 29.7628 14.5652 29.3195V29.8515H16.3605V19.7312H14.5652ZM25.6338 19.7312V22.9077C25.0257 22.4646 24.2908 22.2134 23.4994 22.2134C21.4354 22.2134 19.7676 23.9565 19.7676 26.1137C19.7676 28.2856 21.4354 30.0138 23.4994 30.0138C24.2908 30.0138 25.0257 29.7628 25.6338 29.3195V29.8515H27.429V19.7312H25.6338ZM4.96653 17.5004L6.18242 19.7312H14.5652L11.2431 13.7327L4.96653 17.5004ZM19.0321 21.6076V19.7312H25.6338L18.5939 6.99579L12.3033 10.7631L17.2368 19.7312V21.6076H19.0321ZM28.3057 19.7312H36.7027L25.8457 0.0961304L19.5696 3.87814L28.3057 19.7312Z" fill="white"/>
</svg>
