<svg width="62" height="62" viewBox="0 0 62 62" fill="none" xmlns="http://www.w3.org/2000/svg">
<path d="M31.3712 28.0183C31.3271 27.962 31.2708 27.9164 31.2064 27.885C31.1421 27.8537 31.0714 27.8374 30.9999 27.8374C30.9283 27.8374 30.8577 27.8537 30.7933 27.885C30.729 27.9164 30.6726 27.962 30.6285 28.0183L24.0263 36.3713C23.9719 36.4408 23.9381 36.5242 23.9289 36.612C23.9196 36.6998 23.9352 36.7884 23.974 36.8677C24.0127 36.9471 24.073 37.0139 24.1479 37.0606C24.2229 37.1073 24.3094 37.1319 24.3977 37.1317H28.7539V51.4207C28.7539 51.6801 28.9662 51.8923 29.2255 51.8923H32.7624C33.0218 51.8923 33.234 51.6801 33.234 51.4207V37.1376H37.6021C37.997 37.1376 38.2151 36.6837 37.9734 36.3772L31.3712 28.0183Z" fill="black"/>
<path d="M48.6491 22.5774C45.9493 15.4565 39.07 10.3928 31.0118 10.3928C22.9536 10.3928 16.0744 15.4506 13.3746 22.5715C8.32272 23.8978 4.59131 28.5017 4.59131 33.9721C4.59131 40.4858 9.86716 45.7617 16.375 45.7617H18.7389C18.9982 45.7617 19.2104 45.5495 19.2104 45.2901V41.7532C19.2104 41.4938 18.9982 41.2816 18.7389 41.2816H16.375C14.3885 41.2816 12.5198 40.4917 11.1287 39.0593C9.74337 37.6327 9.00652 35.711 9.07136 33.7186C9.12442 32.1624 9.65495 30.7004 10.6158 29.4684C11.6002 28.2128 12.9796 27.2991 14.5123 26.8924L16.7464 26.3088L17.5658 24.1513C18.0727 22.8073 18.7801 21.5517 19.6702 20.414C20.549 19.2864 21.5899 18.2951 22.7591 17.4725C25.1819 15.7689 28.035 14.867 31.0118 14.867C33.9887 14.867 36.8418 15.7689 39.2646 17.4725C40.4376 18.2978 41.4751 19.2881 42.3535 20.414C43.2436 21.5517 43.951 22.8132 44.4579 24.1513L45.2714 26.3029L47.4996 26.8924C50.6946 27.753 52.9287 30.6592 52.9287 33.9721C52.9287 35.9232 52.1683 37.7624 50.7889 39.1418C50.1125 39.8222 49.3077 40.3617 48.4214 40.729C47.535 41.0963 46.5845 41.2841 45.6251 41.2816H43.2613C43.0019 41.2816 42.7897 41.4938 42.7897 41.7532V45.2901C42.7897 45.5495 43.0019 45.7617 43.2613 45.7617H45.6251C52.1329 45.7617 57.4088 40.4858 57.4088 33.9721C57.4088 28.5076 53.6892 23.9096 48.6491 22.5774Z" fill="black"/>
</svg>
