<svg width="20" height="20" viewBox="0 0 20 20" fill="none" xmlns="http://www.w3.org/2000/svg">
<path d="M14.7154 4.10739C15.0408 3.78196 15.5685 3.78195 15.8939 4.10739C16.2193 4.43282 16.2193 4.96046 15.8939 5.2859L11.1798 9.99999L15.8939 14.714C16.2193 15.0394 16.2193 15.5671 15.8939 15.8925C15.5685 16.2179 15.0408 16.2179 14.7154 15.8925L10.0013 11.1785L5.28734 15.8925C5.28225 15.8976 5.27712 15.9026 5.27194 15.9075C4.94546 16.2178 4.42918 16.2128 4.10883 15.8925C3.86475 15.6484 3.80373 15.2906 3.92577 14.9897C3.96644 14.8893 4.02747 14.7953 4.10883 14.714L8.82284 9.99999L4.10883 5.28594C3.78339 4.96051 3.78339 4.43286 4.10883 4.10743C4.43426 3.78199 4.9619 3.78199 5.28734 4.10743L10.0013 8.82141L14.7154 4.10739Z" fill="#656D76"/>
</svg>
