<svg width="26" height="26" viewBox="0 0 26 26" fill="none" xmlns="http://www.w3.org/2000/svg">
<path d="M13.3448 2.31034C7.63448 2.31034 3 6.94483 3 12.6552C3 18.3655 7.63448 23 13.3448 23C19.0552 23 23.6897 18.3655 23.6897 12.6552C23.6897 6.94483 19.0552 2.31034 13.3448 2.31034ZM13.3448 20.931C8.78276 20.931 5.06897 17.2172 5.06897 12.6552C5.06897 8.0931 8.78276 4.37931 13.3448 4.37931C17.9069 4.37931 21.6207 8.0931 21.6207 12.6552C21.6207 17.2172 17.9069 20.931 13.3448 20.931ZM18.0931 8.08276L11.2759 14.9L8.59655 12.231L7.13793 13.6897L11.2759 17.8276L19.5517 9.55172L18.0931 8.08276Z" fill="#418ED6"/>
</svg>
