<svg width="44" height="45" viewBox="0 0 44 45" fill="none" xmlns="http://www.w3.org/2000/svg">
<path d="M22.1034 4.19897C12.1103 4.19897 4 12.3093 4 22.3024C4 32.2955 12.1103 40.4059 22.1034 40.4059C32.0966 40.4059 40.2069 32.2955 40.2069 22.3024C40.2069 12.3093 32.0966 4.19897 22.1034 4.19897ZM22.1034 36.7852C14.1198 36.7852 7.62069 30.286 7.62069 22.3024C7.62069 14.3188 14.1198 7.81966 22.1034 7.81966C30.0871 7.81966 36.5862 14.3188 36.5862 22.3024C36.5862 30.286 30.0871 36.7852 22.1034 36.7852ZM30.4129 14.3007L18.4828 26.2309L13.794 21.5602L11.2414 24.1128L18.4828 31.3541L32.9655 16.8714L30.4129 14.3007Z" fill="#418ED6"/>
</svg>
