<svg width="42" height="43" viewBox="0 0 42 43" fill="none" xmlns="http://www.w3.org/2000/svg">
<path d="M36.0603 8.51697H30.8488V5.91119C31.5683 5.91119 32.1516 5.32789 32.1516 4.60831C32.1516 3.88872 31.5683 3.30542 30.8488 3.30542H11.3055C10.5859 3.30542 10.0026 3.88872 10.0026 4.60831C10.0026 5.32789 10.5859 5.91119 11.3055 5.91119V8.51697H6.0939C5.37731 8.51697 4.79102 9.10327 4.79102 9.81985V11.1227C4.79102 15.7154 7.91794 19.7218 12.3738 20.8358L12.8494 20.953H12.8559C14.2433 23.1221 16.4709 24.7049 19.0827 25.2523C18.9584 27.1168 18.5223 28.9475 17.7868 30.666H14.5627C13.8461 30.666 13.2598 31.2523 13.2598 31.9689V37.1805C12.5402 37.1805 11.9569 37.7638 11.9569 38.4834V39.7863H30.1973V38.4834C30.1973 37.7638 29.614 37.1805 28.8944 37.1805V31.9689C28.8944 31.2523 28.3081 30.666 27.5915 30.666H24.3674C23.6319 28.9475 23.1958 27.1168 23.0715 25.2523C25.6833 24.7049 27.9109 23.1221 29.2983 20.953H29.3048L29.7804 20.8358C34.2363 19.7218 37.3632 15.7154 37.3632 11.1227V9.81985C37.3632 9.10327 36.7769 8.51697 36.0603 8.51697ZM24.3343 33.9233C24.3343 34.2816 24.0412 34.5747 23.6829 34.5747H18.4713C18.113 34.5747 17.8199 34.2816 17.8199 33.9233C17.8199 33.565 18.113 33.2718 18.4713 33.2718H23.6829C24.0412 33.2718 24.3343 33.565 24.3343 33.9233ZM7.39679 11.1227H11.3055V15.6828C11.3055 16.3994 11.3836 17.09 11.5269 17.761C9.03843 16.5428 7.39679 13.9891 7.39679 11.1227ZM23.494 18.0997L21.0771 16.8294L18.6602 18.0997L19.1228 15.4092L17.1684 13.5005L19.8719 13.1096L21.0771 10.6602L22.2823 13.1096L24.9858 13.5005L23.0314 15.4092L23.494 18.0997ZM30.6273 17.761C30.7706 17.09 30.8488 16.3994 30.8488 15.6828V11.1227H34.7574C34.7574 13.9891 33.1158 16.5428 30.6273 17.761Z" fill="white"/>
</svg>
