<svg width="24" height="24" viewBox="0 0 24 24" fill="none" xmlns="http://www.w3.org/2000/svg">
<g opacity="0.7">
<path d="M5.21429 18.6429C4.625 18.6429 4.12071 18.4565 3.70143 18.0838C3.28143 17.7105 3.07143 17.2619 3.07143 16.7381V4.35714C2.76786 4.35714 2.51321 4.26603 2.3075 4.08381C2.1025 3.90095 2 3.6746 2 3.40476C2 3.13492 2.1025 2.90857 2.3075 2.72571C2.51321 2.54349 2.76786 2.45238 3.07143 2.45238H7.35714C7.35714 2.18254 7.46 1.95619 7.66571 1.77333C7.87071 1.59111 8.125 1.5 8.42857 1.5H12.7143C13.0179 1.5 13.2725 1.59111 13.4782 1.77333C13.6832 1.95619 13.7857 2.18254 13.7857 2.45238H18.0714C18.375 2.45238 18.6293 2.54349 18.8343 2.72571C19.04 2.90857 19.1429 3.13492 19.1429 3.40476C19.1429 3.6746 19.04 3.90095 18.8343 4.08381C18.6293 4.26603 18.375 4.35714 18.0714 4.35714V16.7381C18.0714 17.2619 17.8618 17.7105 17.4425 18.0838C17.0225 18.4565 16.5179 18.6429 15.9286 18.6429H5.21429ZM7.35714 13.881C7.35714 14.1508 7.46 14.3768 7.66571 14.559C7.87071 14.7419 8.125 14.8333 8.42857 14.8333C8.73214 14.8333 8.98679 14.7419 9.1925 14.559C9.3975 14.3768 9.5 14.1508 9.5 13.881V7.21429C9.5 6.94444 9.3975 6.71809 9.1925 6.53524C8.98679 6.35302 8.73214 6.2619 8.42857 6.2619C8.125 6.2619 7.87071 6.35302 7.66571 6.53524C7.46 6.71809 7.35714 6.94444 7.35714 7.21429V13.881ZM11.6429 13.881C11.6429 14.1508 11.7457 14.3768 11.9514 14.559C12.1564 14.7419 12.4107 14.8333 12.7143 14.8333C13.0179 14.8333 13.2725 14.7419 13.4782 14.559C13.6832 14.3768 13.7857 14.1508 13.7857 13.881V7.21429C13.7857 6.94444 13.6832 6.71809 13.4782 6.53524C13.2725 6.35302 13.0179 6.2619 12.7143 6.2619C12.4107 6.2619 12.1564 6.35302 11.9514 6.53524C11.7457 6.71809 11.6429 6.94444 11.6429 7.21429V13.881Z" fill="black"/>
</g>
</svg>
