<svg width="27" height="18" viewBox="0 0 27 18" fill="none" xmlns="http://www.w3.org/2000/svg">
<g clip-path="url(#clip0_867_3364)">
<path d="M0.700195 0.449997H26.3502V17.55H0.700195V0.449997Z" fill="white"/>
<path d="M0.700195 0.449997H26.3502V1.765H0.700195V0.449997ZM0.700195 3.08H26.3502V4.395H0.700195V3.08ZM0.700195 5.71H26.3502V7.025H0.700195V5.71ZM0.700195 8.34H26.3502V9.655H0.700195V8.34ZM0.700195 10.975H26.3502V12.29H0.700195V10.975ZM0.700195 13.605H26.3502V14.92H0.700195V13.605ZM0.700195 16.235H26.3502V17.55H0.700195V16.235Z" fill="#D80027"/>
<path d="M0.700195 0.449997H13.5252V9.655H0.700195V0.449997Z" fill="#2E52B2"/>
<path d="M3.09025 7.39504L2.89025 6.75504L2.67025 7.39504H2.01025L2.54525 7.78004L2.34525 8.42004L2.89025 8.02504L3.42025 8.42004L3.21525 7.78004L3.76025 7.39504H3.09025ZM5.90525 7.39504L5.70025 6.75504L5.49025 7.39504H4.83025L5.36525 7.78004L5.16525 8.42004L5.70025 8.02504L6.24025 8.42004L6.04025 7.78004L6.57525 7.39504H5.90525ZM8.73025 7.39504L8.51525 6.75504L8.31525 7.39504H7.64025L8.19025 7.78004L7.98025 8.42004L8.51525 8.02504L9.06525 8.42004L8.85525 7.78004L9.39025 7.39504H8.73025ZM11.5403 7.39504L11.3403 6.75504L11.1303 7.39504H10.4653L11.0053 7.78004L10.8053 8.42004L11.3403 8.02504L11.8803 8.42004L11.6653 7.78004L12.2153 7.39504H11.5403ZM5.70025 4.21504L5.49025 4.85504H4.83025L5.36525 5.25004L5.16525 5.88004L5.70025 5.49004L6.24025 5.88004L6.04025 5.25004L6.57525 4.85504H5.90525L5.70025 4.21504ZM2.89025 4.21504L2.67025 4.85504H2.01025L2.54525 5.25004L2.34525 5.88004L2.89025 5.49004L3.42025 5.88004L3.21525 5.25004L3.76025 4.85504H3.09025L2.89025 4.21504ZM8.51525 4.21504L8.31525 4.85504H7.64025L8.19025 5.25004L7.98025 5.88004L8.51525 5.49004L9.06525 5.88004L8.85525 5.25004L9.39025 4.85504H8.73025L8.51525 4.21504ZM11.3403 4.21504L11.1303 4.85504H10.4653L11.0053 5.25004L10.8053 5.88004L11.3403 5.49004L11.8803 5.88004L11.6653 5.25004L12.2153 4.85504H11.5403L11.3403 4.21504ZM2.89025 1.68504L2.67025 2.31504H2.01025L2.54525 2.71004L2.34525 3.34504L2.89025 2.95004L3.42025 3.34504L3.21525 2.71004L3.76025 2.31504H3.09025L2.89025 1.68504ZM5.70025 1.68504L5.49025 2.31504H4.83025L5.36525 2.71004L5.16525 3.34504L5.70025 2.95004L6.24025 3.34504L6.04025 2.71004L6.57525 2.31504H5.90525L5.70025 1.68504ZM8.51525 1.68504L8.31525 2.31504H7.64025L8.19025 2.71004L7.98025 3.34504L8.51525 2.95004L9.06525 3.34504L8.85525 2.71004L9.39025 2.31504H8.73025L8.51525 1.68504ZM11.3403 1.68504L11.1303 2.31504H10.4653L11.0053 2.71004L10.8053 3.34504L11.3403 2.95004L11.8803 3.34504L11.6653 2.71004L12.2153 2.31504H11.5403L11.3403 1.68504Z" fill="white"/>
</g>
<defs>
<clipPath id="clip0_867_3364">
<rect width="25.65" height="17.1" fill="white" transform="translate(0.700195 0.449997)"/>
</clipPath>
</defs>
</svg>
