<svg width="70" height="71" viewBox="0 0 70 71" fill="none" xmlns="http://www.w3.org/2000/svg">
<circle cx="35" cy="35.5" r="35" fill="#FFE0EB"/>
<g clip-path="url(#clip0_867_2405)">
<path d="M45.1323 20.5C43.4164 20.5 42.0254 21.891 42.0254 23.6069V32.8773H47.3604C47.8457 32.8773 48.2393 32.4838 48.2393 31.9984V23.6069C48.2393 21.891 46.8482 20.5 45.1323 20.5V20.5Z" fill="#FF82AC"/>
<path d="M30.6266 42.5898C30.6266 37.2805 34.9456 32.9076 40.3261 32.9223V23.9855C40.3261 22.6486 40.8293 21.4271 41.656 20.5H26.1541C23.7318 20.5 21.7607 22.4711 21.7607 24.8934V49.6053C21.7607 50.3959 22.7279 50.7844 23.2748 50.2129L24.3992 49.0387L25.5869 50.227C25.9297 50.5697 26.4863 50.5697 26.8297 50.227L27.9553 49.102L29.092 50.2293C29.4348 50.5691 29.9873 50.5691 30.3301 50.2293L31.485 49.0844L32.6404 50.2293C32.9826 50.5691 33.5346 50.5691 33.8773 50.2299L34.1012 50.0084C31.922 48.1864 30.6266 45.4923 30.6266 42.5898ZM28.8709 27.5898H30.6055V25.8552C30.6055 25.3698 30.999 24.9763 31.4844 24.9763C31.9698 24.9763 32.3633 25.3698 32.3633 25.8552V27.5898H34.0979C34.5833 27.5898 34.9768 27.9834 34.9768 28.4688C34.9768 28.9541 34.5833 29.3477 34.0979 29.3477H32.3633V31.0823C32.3633 31.5677 31.9698 31.9612 31.4844 31.9612C30.999 31.9612 30.6055 31.5677 30.6055 31.0823V29.3477H28.8709C28.3855 29.3477 27.992 28.9541 27.992 28.4688C27.992 27.9834 28.3855 27.5898 28.8709 27.5898ZM26.2109 33.7451H32.1289C32.6143 33.7451 33.0078 34.1386 33.0078 34.624C33.0078 35.1094 32.6143 35.5029 32.1289 35.5029H26.2109C25.7255 35.5029 25.332 35.1094 25.332 34.624C25.332 34.1386 25.7255 33.7451 26.2109 33.7451ZM29.1435 42.5283H26.205C25.7196 42.5283 25.3261 42.1348 25.3261 41.6494C25.3261 41.164 25.7196 40.7705 26.205 40.7705H29.1435C29.6289 40.7705 30.0224 41.164 30.0224 41.6494C30.0224 42.1348 29.6289 42.5283 29.1435 42.5283ZM29.7295 39.0186H26.2079C25.7225 39.0186 25.329 38.625 25.329 38.1396C25.329 37.6543 25.7225 37.2607 26.2079 37.2607H29.7295C30.2149 37.2607 30.6084 37.6543 30.6084 38.1396C30.6084 38.625 30.2149 39.0186 29.7295 39.0186Z" fill="#FF82AC"/>
<path d="M40.2947 34.6797C35.933 34.6797 32.3845 38.2282 32.3845 42.5898C32.3845 46.9515 35.933 50.5 40.2947 50.5C44.6563 50.5 48.2048 46.9515 48.2048 42.5898C48.2048 38.2282 44.6563 34.6797 40.2947 34.6797ZM41.1763 45.9747V46.0583C41.1763 46.5437 40.7828 46.9372 40.2974 46.9372C39.812 46.9372 39.4185 46.5437 39.4185 46.0583V46.0434C39.0248 45.9496 38.6596 45.7945 38.3699 45.605C37.9637 45.3392 37.8499 44.7946 38.1156 44.3883C38.3814 43.982 38.926 43.8682 39.3323 44.134C39.692 44.3693 40.285 44.4587 40.5764 44.3216C40.7652 44.2327 40.9114 44.043 40.9317 43.8603C40.9752 43.4712 40.3655 43.2541 40.0015 43.1103C39.4506 42.8927 38.7649 42.6219 38.3669 41.9033C37.7995 40.8791 38.2965 39.5287 39.4185 39.0669V39.0227C39.4185 38.5373 39.812 38.1437 40.2974 38.1437C40.778 38.1437 41.168 38.5296 41.1756 39.0084C41.492 39.1073 41.7834 39.2655 42.0167 39.4807C42.3736 39.8098 42.396 40.3658 42.0669 40.7226C41.7378 41.0795 41.1817 41.1019 40.825 40.7728C40.6804 40.6394 40.2348 40.5856 40.0411 40.7156C39.9109 40.8031 39.8599 40.9709 39.9045 41.0514C40.0901 41.3865 41.0622 41.5013 41.7978 42.0746C43.3007 43.2457 42.7778 45.3604 41.1763 45.9747Z" fill="#FF82AC"/>
</g>
<defs>
<clipPath id="clip0_867_2405">
<rect width="30" height="30" fill="white" transform="translate(20 20.5)"/>
</clipPath>
</defs>
</svg>
