<svg width="51" height="51" viewBox="0 0 51 51" fill="none" xmlns="http://www.w3.org/2000/svg">
<circle cx="25.5" cy="25.5" r="25" fill="#F5F7FA"/>
<g clip-path="url(#clip0_867_2769)">
<path d="M24.9419 37.5C22.7889 37.5 21.0356 35.7479 21.0356 33.5938C21.0356 33.1625 21.3856 32.8125 21.8169 32.8125C22.2481 32.8125 22.5981 33.1625 22.5981 33.5938C22.5981 34.8866 23.6502 35.9375 24.9419 35.9375C26.2336 35.9375 27.2856 34.8866 27.2856 33.5938C27.2856 33.1625 27.6356 32.8125 28.0669 32.8125C28.4981 32.8125 28.8481 33.1625 28.8481 33.5938C28.8481 35.7479 27.0951 37.5 24.9419 37.5Z" fill="#FE5C73"/>
<path d="M33.5357 34.375H16.3482C15.3431 34.375 14.5254 33.5573 14.5254 32.5521C14.5254 32.0187 14.7577 31.5136 15.1628 31.1666C15.189 31.1438 15.217 31.123 15.2462 31.1041C16.7753 29.7697 17.6504 27.85 17.6504 25.8228V22.9166C17.6504 18.8959 20.9223 15.625 24.942 15.625C25.1087 15.625 25.2889 15.6281 25.4556 15.6563C25.8816 15.727 26.1692 16.1303 26.0982 16.5552C26.0275 16.9802 25.617 17.2678 25.1993 17.1968C25.1159 17.1833 25.0244 17.1875 24.942 17.1875C21.7838 17.1875 19.2129 19.7573 19.2129 22.9166V25.8228C19.2129 28.3396 18.1097 30.7209 16.189 32.3551C16.1733 32.3677 16.1598 32.3792 16.143 32.3906C16.115 32.4261 16.0879 32.4802 16.0879 32.5521C16.0879 32.6937 16.2067 32.8125 16.3482 32.8125H33.5357C33.6775 32.8125 33.7963 32.6937 33.7963 32.5521C33.7963 32.4791 33.7692 32.4261 33.74 32.3906C33.7244 32.3792 33.7108 32.3677 33.6952 32.3551C31.7734 30.7198 30.6713 28.3396 30.6713 25.8228V24.6876C30.6713 24.2563 31.0213 23.9063 31.4525 23.9063C31.8838 23.9063 32.2338 24.2563 32.2338 24.6876V25.8228C32.2338 27.8511 33.1098 29.7718 34.6411 31.1073C34.6691 31.126 34.6962 31.1459 34.7212 31.1678C35.1265 31.5136 35.3588 32.0187 35.3588 32.5521C35.3588 33.5573 34.5411 34.375 33.5357 34.375Z" fill="#FE5C73"/>
<path d="M32.2338 22.9166C29.3619 22.9166 27.0254 20.5803 27.0254 17.7084C27.0254 14.8365 29.3619 12.5 32.2338 12.5C35.1057 12.5 37.442 14.8365 37.442 17.7084C37.442 20.5803 35.1057 22.9166 32.2338 22.9166ZM32.2338 14.0625C30.2233 14.0625 28.5879 15.6979 28.5879 17.7084C28.5879 19.7187 30.2233 21.3541 32.2338 21.3541C34.2441 21.3541 35.8795 19.7187 35.8795 17.7084C35.8795 15.6979 34.2441 14.0625 32.2338 14.0625Z" fill="#FE5C73"/>
</g>
<defs>
<clipPath id="clip0_867_2769">
<rect width="25" height="25" fill="white" transform="translate(13.5 12.5)"/>
</clipPath>
</defs>
</svg>
