<svg width="51" height="51" viewBox="0 0 51 51" fill="none" xmlns="http://www.w3.org/2000/svg">
<circle cx="25.5" cy="25.5" r="25" fill="#F5F7FA"/>
<g clip-path="url(#clip0_867_2764)">
<path d="M25.7845 37.5H24.2155C22.9465 37.5 21.914 36.4676 21.914 35.1986V34.6678C21.3745 34.4954 20.8503 34.2778 20.3468 34.0172L19.9706 34.3934C19.0595 35.3056 17.6001 35.2789 16.7155 34.3931L15.6065 33.2842C14.7204 32.399 14.6949 30.94 15.6068 30.0291L15.9827 29.6532C15.7221 29.1496 15.5046 28.6255 15.3322 28.0859H14.8014C13.5325 28.0859 12.5 27.0535 12.5 25.7845V24.2155C12.5 22.9465 13.5325 21.9141 14.8015 21.9141H15.3322C15.5046 21.3745 15.7222 20.8504 15.9828 20.3468L15.6066 19.9707C14.6952 19.0603 14.7203 17.6012 15.6069 16.7156L16.7159 15.6066C17.6026 14.7187 19.0617 14.6965 19.971 15.6069L20.3468 15.9827C20.8504 15.7222 21.3746 15.5046 21.9141 15.3322V14.8014C21.9141 13.5324 22.9465 12.5 24.2155 12.5H25.7845C27.0535 12.5 28.0859 13.5324 28.0859 14.8014V15.3322C28.6254 15.5046 29.1496 15.7222 29.6532 15.9828L30.0293 15.6066C30.9404 14.6944 32.3999 14.7211 33.2845 15.6069L34.3934 16.7158C35.2796 17.601 35.3051 19.06 34.3931 19.9709L34.0172 20.3468C34.2778 20.8504 34.4954 21.3745 34.6678 21.9141H35.1985C36.4675 21.9141 37.5 22.9465 37.5 24.2155V25.7845C37.5 27.0535 36.4675 28.0859 35.1985 28.0859H34.6678C34.4954 28.6255 34.2778 29.1496 34.0172 29.6532L34.3934 30.0293C35.3048 30.9398 35.2797 32.3989 34.3931 33.2845L33.2841 34.3935C32.3974 35.2813 30.9383 35.3035 30.029 34.3932L29.6532 34.0173C29.1496 34.2779 28.6254 34.4955 28.0859 34.6679V35.1987C28.0859 36.4676 27.0535 37.5 25.7845 37.5ZM20.5917 32.479C21.2912 32.8927 22.0441 33.2053 22.8295 33.408C23.1529 33.4914 23.3789 33.7831 23.3789 34.1171V35.1986C23.3789 35.6599 23.7542 36.0352 24.2155 36.0352H25.7845C26.2458 36.0352 26.6211 35.6599 26.6211 35.1986V34.1171C26.6211 33.7831 26.8471 33.4914 27.1706 33.408C27.9559 33.2053 28.7088 32.8927 29.4084 32.479C29.6962 32.3088 30.0627 32.3551 30.2992 32.5916L31.0652 33.3576C31.3955 33.6883 31.9258 33.6806 32.248 33.358L33.3577 32.2483C33.6791 31.9273 33.6898 31.3968 33.358 31.0654L32.5917 30.2991C32.3552 30.0626 32.3089 29.6961 32.4791 29.4083C32.8928 28.7088 33.2053 27.9559 33.408 27.1705C33.4915 26.8471 33.7832 26.6211 34.1172 26.6211H35.1986C35.6599 26.6211 36.0352 26.2458 36.0352 25.7846V24.2155C36.0352 23.7542 35.6599 23.379 35.1986 23.379H34.1172C33.7832 23.379 33.4915 23.153 33.408 22.8296C33.2053 22.0442 32.8928 21.2913 32.4791 20.5917C32.3089 20.304 32.3552 19.9375 32.5917 19.701L33.3577 18.935C33.6889 18.6042 33.6802 18.0739 33.358 17.7521L32.2484 16.6425C31.9268 16.3204 31.3963 16.311 31.0655 16.6422L30.2992 17.4085C30.0628 17.645 29.6962 17.6913 29.4084 17.5211C28.7089 17.1074 27.956 16.7948 27.1706 16.5921C26.8472 16.5087 26.6212 16.217 26.6212 15.883V14.8014C26.6212 14.3401 26.2458 13.9648 25.7846 13.9648H24.2156C23.7543 13.9648 23.379 14.3401 23.379 14.8014V15.8829C23.379 16.2169 23.153 16.5086 22.8295 16.592C22.0442 16.7947 21.2913 17.1073 20.5917 17.521C20.3038 17.6912 19.9374 17.6449 19.7009 17.4084L18.9349 16.6424C18.6046 16.3117 18.0742 16.3194 17.7521 16.642L16.6424 17.7517C16.321 18.0727 16.3103 18.6031 16.6421 18.9346L17.4084 19.7009C17.6449 19.9374 17.6912 20.3039 17.521 20.5917C17.1073 21.2912 16.7948 22.0441 16.5921 22.8295C16.5086 23.1529 16.2169 23.3789 15.8829 23.3789H14.8015C14.3402 23.3789 13.9648 23.7542 13.9648 24.2155V25.7845C13.9648 26.2458 14.3402 26.6211 14.8015 26.6211H15.8829C16.2169 26.6211 16.5085 26.8471 16.592 27.1705C16.7947 27.9559 17.1073 28.7088 17.5209 29.4083C17.6911 29.6961 17.6448 30.0626 17.4084 30.299L16.6423 31.0651C16.3112 31.3959 16.3198 31.9261 16.642 32.2479L17.7517 33.3576C18.0733 33.6796 18.6038 33.6891 18.9345 33.3579L19.7008 32.5915C19.875 32.4173 20.2375 32.2695 20.5917 32.479Z" fill="#718EBF"/>
<path d="M25 30.4395C22.0006 30.4395 19.5605 27.9993 19.5605 25C19.5605 22.0007 22.0006 19.5605 25 19.5605C27.9994 19.5605 30.4395 22.0007 30.4395 25C30.4395 27.9993 27.9994 30.4395 25 30.4395ZM25 21.0254C22.8083 21.0254 21.0254 22.8084 21.0254 25C21.0254 27.1916 22.8084 28.9746 25 28.9746C27.1916 28.9746 28.9746 27.1916 28.9746 25C28.9746 22.8084 27.1917 21.0254 25 21.0254Z" fill="#718EBF"/>
</g>
<defs>
<clipPath id="clip0_867_2764">
<rect width="25" height="25" fill="white" transform="translate(12.5 12.5)"/>
</clipPath>
</defs>
</svg>
