<svg width="12" height="8" viewBox="0 0 12 8" fill="none" xmlns="http://www.w3.org/2000/svg">
<path d="M2.03996 6.39506L1.83996 5.75506L1.61996 6.39506H0.959961L1.49496 6.78006L1.29496 7.42006L1.83996 7.02506L2.36996 7.42006L2.16496 6.78006L2.70996 6.39506H2.03996ZM4.85496 6.39506L4.64996 5.75506L4.43996 6.39506H3.77996L4.31496 6.78006L4.11496 7.42006L4.64996 7.02506L5.18996 7.42006L4.98996 6.78006L5.52496 6.39506H4.85496ZM7.67996 6.39506L7.46496 5.75506L7.26496 6.39506H6.58996L7.13996 6.78006L6.92996 7.42006L7.46496 7.02506L8.01496 7.42006L7.80496 6.78006L8.33996 6.39506H7.67996ZM10.49 6.39506L10.29 5.75506L10.08 6.39506H9.41496L9.95496 6.78006L9.75496 7.42006L10.29 7.02506L10.83 7.42006L10.615 6.78006L11.165 6.39506H10.49ZM4.64996 3.21506L4.43996 3.85506H3.77996L4.31496 4.25006L4.11496 4.88006L4.64996 4.49006L5.18996 4.88006L4.98996 4.25006L5.52496 3.85506H4.85496L4.64996 3.21506ZM1.83996 3.21506L1.61996 3.85506H0.959961L1.49496 4.25006L1.29496 4.88006L1.83996 4.49006L2.36996 4.88006L2.16496 4.25006L2.70996 3.85506H2.03996L1.83996 3.21506ZM7.46496 3.21506L7.26496 3.85506H6.58996L7.13996 4.25006L6.92996 4.88006L7.46496 4.49006L8.01496 4.88006L7.80496 4.25006L8.33996 3.85506H7.67996L7.46496 3.21506ZM10.29 3.21506L10.08 3.85506H9.41496L9.95496 4.25006L9.75496 4.88006L10.29 4.49006L10.83 4.88006L10.615 4.25006L11.165 3.85506H10.49L10.29 3.21506ZM1.83996 0.685059L1.61996 1.31506H0.959961L1.49496 1.71006L1.29496 2.34506L1.83996 1.95006L2.36996 2.34506L2.16496 1.71006L2.70996 1.31506H2.03996L1.83996 0.685059ZM4.64996 0.685059L4.43996 1.31506H3.77996L4.31496 1.71006L4.11496 2.34506L4.64996 1.95006L5.18996 2.34506L4.98996 1.71006L5.52496 1.31506H4.85496L4.64996 0.685059ZM7.46496 0.685059L7.26496 1.31506H6.58996L7.13996 1.71006L6.92996 2.34506L7.46496 1.95006L8.01496 2.34506L7.80496 1.71006L8.33996 1.31506H7.67996L7.46496 0.685059ZM10.29 0.685059L10.08 1.31506H9.41496L9.95496 1.71006L9.75496 2.34506L10.29 1.95006L10.83 2.34506L10.615 1.71006L11.165 1.31506H10.49L10.29 0.685059Z" fill="white"/>
</svg>
