<svg width="21" height="21" viewBox="0 0 21 21" fill="none" xmlns="http://www.w3.org/2000/svg">
<g clip-path="url(#clip0_867_2777)">
<path d="M19.8359 18.7109L15.2344 14.1094C16.375 12.7188 17.0625 10.9375 17.0625 8.99609C17.0625 4.54297 13.4492 0.929688 8.99609 0.929688C4.53906 0.929688 0.929688 4.54297 0.929688 8.99609C0.929688 13.4492 4.53906 17.0625 8.99609 17.0625C10.9375 17.0625 12.7148 16.3789 14.1055 15.2383L18.707 19.8359C19.0195 20.1484 19.5234 20.1484 19.8359 19.8359C20.1484 19.5273 20.1484 19.0195 19.8359 18.7109ZM8.99609 15.457C5.42969 15.457 2.53125 12.5586 2.53125 8.99609C2.53125 5.43359 5.42969 2.53125 8.99609 2.53125C12.5586 2.53125 15.4609 5.43359 15.4609 8.99609C15.4609 12.5586 12.5586 15.457 8.99609 15.457Z" fill="#718EBF"/>
</g>
<defs>
<clipPath id="clip0_867_2777">
<rect width="20" height="20" fill="white" transform="translate(0.5 0.5)"/>
</clipPath>
</defs>
</svg>
