<svg width="34" height="35" viewBox="0 0 34 35" fill="none" xmlns="http://www.w3.org/2000/svg">
<path d="M4.73992 1.10052L17.0628 15.1983C16.9794 15.1923 16.8901 15.1923 16.8007 15.1923C15.8961 15.1923 15.0044 15.317 14.1437 15.5503L2.49518 2.44585L3.87035 1.07074C3.98947 0.95758 4.15028 0.886108 4.31109 0.89802C4.47786 0.903976 4.63272 0.975448 4.73992 1.10052ZM0.296781 4.64432C0.0764107 4.86469 0.0644988 5.22204 0.272957 5.46028L10.6065 17.3126C10.8269 17.1399 11.0592 16.9731 11.2974 16.8183C11.8138 16.4822 12.3591 16.2025 12.922 15.9687L1.65158 3.28951L0.296781 4.64432ZM29.7311 1.07074C29.612 0.95758 29.4512 0.892064 29.2844 0.89802C29.1236 0.903976 28.9628 0.981404 28.8556 1.10648L24.7519 5.86529L17.5631 13.9654L18.111 14.5908L18.7662 15.3829C19.1351 15.4546 19.4951 15.5531 19.8504 15.6653L31.1091 2.44871L29.7311 1.07074ZM33.3047 4.64432L31.9543 3.29398L21.0237 16.1257C21.4573 16.3264 21.883 16.5485 22.2921 16.8123C22.5304 16.9672 22.7626 17.128 22.989 17.3067L33.3285 5.46028C33.537 5.22204 33.5251 4.87064 33.3047 4.64432ZM25.4077 3.2804L27.4625 0.89802H6.14577L8.22785 3.2804H25.4077ZM22.2815 6.85397L23.8618 5.07273L24.3803 4.47159H9.26895L11.351 6.85397H22.2815ZM20.9699 25.3174C20.9699 27.6164 19.0994 29.4866 16.8007 29.4866C14.5021 29.4866 12.6316 27.6164 12.6316 25.3174C12.6316 23.0185 14.5021 21.1483 16.8007 21.1483C19.0994 21.1483 20.9699 23.0185 20.9699 25.3174ZM21.6458 17.8141C20.5011 17.0705 19.2355 16.6107 17.8873 16.4478C17.5429 16.4045 17.1875 16.3835 16.8007 16.3835C15.0727 16.3835 13.3929 16.8799 11.9435 17.8195C9.39069 19.4775 7.8668 22.2804 7.8668 25.3174C7.8668 30.2436 11.8743 34.2514 16.8007 34.2514C21.7272 34.2514 25.7347 30.2436 25.7347 25.3174C25.7347 22.2703 24.2055 19.4647 21.6458 17.8141ZM16.8007 30.6778C13.8449 30.6778 11.4404 28.273 11.4404 25.3174C11.4404 22.3619 13.8449 19.9571 16.8007 19.9571C19.7566 19.9571 22.1611 22.3619 22.1611 25.3174C22.1611 28.273 19.7566 30.6778 16.8007 30.6778Z" fill="white"/>
</svg>
